# xmcd
#
# Track frame offsets: 
#        150
#        19200
#        33857
#        50564
#        72742
#        94020
#        120180
#        143194
#        160927
#        176839
#
# Disc length: 2578 seconds
#
# Revision: 0
# Processed by: cddbd v1.5.2PL0 Copyright (c) Steve Scherf et al.
# Submitted via: ExactAudioCopyFreeDBPlugin 1.0
#
DISCID=860a100a
DTITLE=Eastbound Jesus - Hollerin'
DYEAR=1900
DGENRE=Country
TTITLE0=Keep On Hollerin'
TTITLE1=Better Things
TTITLE2=Shoes
TTITLE3=The Storm
TTITLE4=Too Proud
TTITLE5=Beat the Brakes
TTITLE6=Hawk 
TTITLE7=Whiskey On The Dirt
TTITLE8=Cold and Snow
TTITLE9=I Get There
EXTD=
EXTT0=
EXTT1=
EXTT2=
EXTT3=
EXTT4=
EXTT5=
EXTT6=
EXTT7=
EXTT8=
EXTT9=
PLAYORDER=
